<svg width="65" height="65" viewBox="0 0 65 65" fill="none" xmlns="http://www.w3.org/2000/svg">
<path fill-rule="evenodd" clip-rule="evenodd" d="M8.125 29.7917C8.125 19.5785 8.125 14.4706 11.2992 11.2992C14.4733 8.12771 19.5785 8.125 29.7917 8.125H35.2083C45.4215 8.125 50.5294 8.125 53.7008 11.2992C56.8723 14.4733 56.875 19.5785 56.875 29.7917V35.2083C56.875 45.4215 56.875 50.5294 53.7008 53.7008C50.5267 56.8723 45.4215 56.875 35.2083 56.875H29.7917C19.5785 56.875 14.4706 56.875 11.2992 53.7008C8.12771 50.5267 8.125 45.4215 8.125 35.2083V29.7917ZM48.75 20.3125C48.75 21.3899 48.322 22.4233 47.5601 23.1851C46.7983 23.947 45.7649 24.375 44.6875 24.375C43.6101 24.375 42.5767 23.947 41.8149 23.1851C41.053 22.4233 40.625 21.3899 40.625 20.3125C40.625 19.2351 41.053 18.2017 41.8149 17.4399C42.5767 16.678 43.6101 16.25 44.6875 16.25C45.7649 16.25 46.7983 16.678 47.5601 17.4399C48.322 18.2017 48.75 19.2351 48.75 20.3125ZM37.9167 35.2083C37.9167 36.6449 37.346 38.0227 36.3302 39.0385C35.3143 40.0543 33.9366 40.625 32.5 40.625C31.0634 40.625 29.6857 40.0543 28.6698 39.0385C27.654 38.0227 27.0833 36.6449 27.0833 35.2083C27.0833 33.7717 27.654 32.394 28.6698 31.3782C29.6857 30.3623 31.0634 29.7917 32.5 29.7917C33.9366 29.7917 35.3143 30.3623 36.3302 31.3782C37.346 32.394 37.9167 33.7717 37.9167 35.2083ZM43.3333 35.2083C43.3333 38.0815 42.192 40.837 40.1603 42.8687C38.1287 44.9003 35.3732 46.0417 32.5 46.0417C29.6268 46.0417 26.8713 44.9003 24.8397 42.8687C22.808 40.837 21.6667 38.0815 21.6667 35.2083C21.6667 32.3352 22.808 29.5797 24.8397 27.548C26.8713 25.5164 29.6268 24.375 32.5 24.375C35.3732 24.375 38.1287 25.5164 40.1603 27.548C42.192 29.5797 43.3333 32.3352 43.3333 35.2083Z" fill="black"/>
</svg>
