<svg xmlns="http://www.w3.org/2000/svg" viewBox="0 0 32 32" width="32" height="32">
<path fill="white" d="M29.7,2.3c-2.2-2.2-5.8-2.2-13-2.2h-1.3c-7.2,0-10.8,0-13,2.2c-2.2,2.2-2.2,5.8-2.2,13v1.3c0,7.2,0,10.8,2.2,13
	c2.2,2.2,5.8,2.2,13,2.2h1.3c7.2,0,10.8,0,13-2.2c2.2-2.2,2.2-5.8,2.2-13v-1.3C31.9,8.1,31.9,4.5,29.7,2.3z M23,22.9
	c-0.8-2.5-2.8-4.5-5.5-4.7v4.7h-0.4v0c-7.2,0-11.4-5-11.5-13.2h3.6c0.1,6.1,2.8,8.6,4.9,9.1V9.7h3.4v5.2c2.1-0.2,4.3-2.6,5-5.2h3.4
	c-0.6,3.2-2.9,5.6-4.6,6.6c1.7,0.8,4.4,2.9,5.4,6.6H23z"/>
</svg>
